<svg width="1672" height="941" viewBox="0 0 1672 941" fill="none" xmlns="http://www.w3.org/2000/svg">
  <defs>
    <radialGradient id="bgGlow" cx="0" cy="0" r="1" gradientUnits="userSpaceOnUse" gradientTransform="translate(1038 487) rotate(136.103) scale(944.723 1158.09)">
      <stop offset="0" stop-color="#29F07A"/>
      <stop offset="0.36" stop-color="#0A6137"/>
      <stop offset="1" stop-color="#031813"/>
    </radialGradient>
    <linearGradient id="beam" x1="0" y1="0" x2="1" y2="0">
      <stop stop-color="#0B2A22" stop-opacity="0"/>
      <stop offset="0.45" stop-color="#58FF93" stop-opacity="0.9"/>
      <stop offset="1" stop-color="#A9FFD0" stop-opacity="0"/>
    </linearGradient>
    <linearGradient id="machineBody" x1="0" y1="0" x2="1" y2="1">
      <stop stop-color="#3F444B"/>
      <stop offset="0.45" stop-color="#1E2328"/>
      <stop offset="1" stop-color="#454B52"/>
    </linearGradient>
    <linearGradient id="machineSide" x1="0" y1="0" x2="1" y2="1">
      <stop stop-color="#4B5158"/>
      <stop offset="1" stop-color="#191D22"/>
    </linearGradient>
    <linearGradient id="screenGlow" x1="0" y1="0" x2="1" y2="1">
      <stop stop-color="#09110D"/>
      <stop offset="1" stop-color="#111615"/>
    </linearGradient>
    <linearGradient id="glassGlow" x1="0" y1="0" x2="1" y2="1">
      <stop stop-color="#18FF8A" stop-opacity="0.7"/>
      <stop offset="1" stop-color="#E5FFFF" stop-opacity="0.2"/>
    </linearGradient>
    <filter id="soft" x="-50%" y="-50%" width="200%" height="200%">
      <feGaussianBlur stdDeviation="24"/>
    </filter>
  </defs>

  <rect width="1672" height="941" fill="url(#bgGlow)"/>
  <ellipse cx="400" cy="802" rx="360" ry="34" fill="#5AFFA4" fill-opacity="0.12"/>
  <ellipse cx="1016" cy="812" rx="560" ry="42" fill="#88FFD4" fill-opacity="0.16"/>
  <path d="M0 586C225 646 362 686 532 721C701 757 891 773 1672 748" stroke="url(#beam)" stroke-width="5"/>
  <path d="M1266 718C1398 664 1509 645 1672 635" stroke="url(#beam)" stroke-width="7"/>
  <path d="M0 787H1672" stroke="url(#beam)" stroke-width="7"/>

  <g filter="url(#soft)" opacity="0.8">
    <circle cx="950" cy="284" r="120" fill="#1BFF7D" fill-opacity="0.26"/>
    <circle cx="1260" cy="630" r="170" fill="#1AFF84" fill-opacity="0.18"/>
    <circle cx="295" cy="648" r="120" fill="#1AFF84" fill-opacity="0.14"/>
  </g>

  <g transform="translate(388 428)">
    <ellipse cx="86" cy="336" rx="88" ry="20" fill="#000" fill-opacity="0.35"/>
    <rect x="28" y="160" width="116" height="136" rx="38" fill="#1B1F23"/>
    <rect x="24" y="36" width="124" height="110" rx="54" fill="#20252A"/>
    <circle cx="86" cy="90" r="60" fill="#0C0F12"/>
    <circle cx="66" cy="82" r="15" fill="#57FF6B"/>
    <circle cx="108" cy="82" r="15" fill="#57FF6B"/>
    <path d="M74 114C79 120 93 120 98 114" stroke="#132D1B" stroke-width="6" stroke-linecap="round"/>
    <rect x="36" y="0" width="100" height="40" rx="20" fill="#20252A" transform="rotate(28 36 0)"/>
    <rect x="30" y="280" width="42" height="54" rx="18" fill="#181C20"/>
    <rect x="100" y="280" width="42" height="54" rx="18" fill="#181C20"/>
    <rect x="4" y="176" width="38" height="118" rx="19" fill="#181C20" transform="rotate(10 4 176)"/>
    <rect x="142" y="168" width="38" height="96" rx="19" fill="#181C20" transform="rotate(-35 142 168)"/>
    <rect x="157" y="150" width="18" height="62" rx="9" fill="#181C20" transform="rotate(-62 157 150)"/>
  </g>

  <g transform="translate(736 40)">
    <path d="M0 94L460 0L570 90L570 722L84 722L0 652V94Z" fill="url(#machineBody)"/>
    <path d="M460 0L570 90V722L460 632V0Z" fill="url(#machineSide)"/>
    <path d="M34 126H424V446H34V126Z" fill="url(#screenGlow)"/>
    <rect x="49" y="143" width="360" height="286" fill="#0C0F11"/>
    <rect x="61" y="526" width="220" height="196" rx="4" fill="url(#glassGlow)" fill-opacity="0.6" stroke="#76FFBD" stroke-opacity="0.4"/>
    <rect x="312" y="530" width="98" height="96" rx="6" fill="#101317" stroke="#2B2F33"/>
    <rect x="334" y="550" width="54" height="54" rx="3" fill="#1D2228"/>
    <circle cx="352" cy="546" r="3.5" fill="#7BFF95"/>
    <circle cx="370" cy="546" r="3.5" fill="#7BFF95"/>
    <circle cx="346" cy="610" r="2.5" fill="#63FF8F"/>
    <circle cx="376" cy="610" r="2.5" fill="#63FF8F"/>
    <rect x="140" y="366" width="104" height="38" rx="19" fill="#76F246"/>
    <path d="M176 378H188V392H176V378Z" fill="#E6FFC2"/>
    <path d="M194 378H206V392H194V378Z" fill="#E6FFC2"/>
    <path d="M212 378H224V392H212V392Z" fill="#E6FFC2"/>

    <g>
      <rect x="109" y="207" width="40" height="104" rx="14" fill="#16191C" stroke="#FFCF3D" stroke-width="3"/>
      <rect x="106" y="193" width="46" height="13" rx="6.5" fill="#FFCF3D"/>
      <rect x="228" y="164" width="68" height="165" rx="22" fill="#17191D" stroke="#FF4DA0" stroke-width="4"/>
      <rect x="224" y="146" width="76" height="18" rx="9" fill="#FF4DA0"/>
      <rect x="340" y="204" width="48" height="112" rx="16" fill="#17191D" stroke="#78FF4A" stroke-width="3"/>
      <rect x="336" y="190" width="56" height="15" rx="7.5" fill="#78FF4A"/>
      <rect x="343" y="316" width="38" height="6" rx="3" fill="#78FF4A"/>
      <rect x="116" y="311" width="26" height="5" rx="2.5" fill="#FFCF3D"/>
      <rect x="239" y="330" width="46" height="8" rx="4" fill="#FF4DA0"/>
    </g>

    <path d="M104 706H258L226 682H136L104 706Z" fill="#D3E7EA"/>
    <path d="M109 698H253" stroke="#0B0D0F" stroke-width="5" stroke-linecap="round"/>
    <path d="M125 690L139 698" stroke="#0B0D0F" stroke-width="4" stroke-linecap="round"/>
    <path d="M156 690L170 698" stroke="#0B0D0F" stroke-width="4" stroke-linecap="round"/>
    <path d="M187 690L201 698" stroke="#0B0D0F" stroke-width="4" stroke-linecap="round"/>
    <path d="M218 690L232 698" stroke="#0B0D0F" stroke-width="4" stroke-linecap="round"/>
    <rect x="107" y="38" width="140" height="26" rx="13" fill="#FFF" fill-opacity="0.92"/>
    <path d="M130 50L140 41H153L142 53H154L144 61H131L141 50H130Z" fill="#15181C"/>
    <rect x="23" y="179" width="15" height="4" rx="2" fill="#596169"/>
    <rect x="23" y="190" width="15" height="4" rx="2" fill="#596169"/>
    <rect x="23" y="201" width="15" height="4" rx="2" fill="#596169"/>
    <circle cx="382" cy="162" r="10" stroke="#F5F5F5" stroke-width="2"/>
    <text x="183" y="57" fill="#15181C" font-size="14" font-family="Arial, sans-serif" font-weight="700">ISHAKER</text>
  </g>
</svg>
