<svg width="220" height="72" viewBox="0 0 220 72" fill="none" xmlns="http://www.w3.org/2000/svg">
  <rect width="220" height="72" rx="18" fill="transparent"/>
  <path d="M23.603 47.659C18.423 47.659 13.931 45.886 10.127 42.34C6.32299 38.793 4.421 34.624 4.421 29.834C4.421 25.693 5.93 21.915 8.948 18.5C11.966 15.085 15.921 12.833 20.814 11.744L45.344 6.23401L36.786 20.414L26.81 22.528C23.35 23.279 20.72 24.526 18.92 26.268C17.12 28.011 16.22 30.185 16.22 32.789C16.22 35.393 17.211 37.567 19.193 39.31C21.176 41.052 23.679 41.923 26.703 41.923H34.798L23.603 47.659Z" fill="#52EA54"/>
  <path d="M49.553 41.942C42.286 41.942 36.304 39.741 31.607 35.339C26.91 30.936 24.562 25.459 24.562 18.907C24.562 16.805 24.909 14.697 25.604 12.583C26.299 10.469 27.322 8.46201 28.672 6.56201H43.353C41.191 9.31701 40.11 12.412 40.11 15.848C40.11 19.922 41.623 23.197 44.648 25.673C47.673 28.148 51.673 29.386 56.649 29.386H83.309L74.588 41.942H49.553Z" fill="#7CF55F"/>
  <path d="M100.547 8C109.579 8 117.02 10.474 122.87 15.422C128.719 20.369 131.644 26.508 131.644 33.838C131.644 36.703 131.13 39.468 130.103 42.133H114.21C115.818 39.989 116.623 37.676 116.623 35.196C116.623 31.563 115.089 28.652 112.02 26.462C108.952 24.272 104.786 23.177 99.522 23.177H69.512L77.637 8H100.547Z" fill="#FFF4A8"/>
  <ellipse cx="114.127" cy="35.996" rx="20.798" ry="17.541" fill="#FFF8D8"/>
</svg>
